<mxfile host="app.diagrams.net" modified="2024-09-08T11:54:31.288Z" agent="Mozilla/5.0 (Windows NT 10.0; Win64; x64) AppleWebKit/537.36 (KHTML, like Gecko) Chrome/127.0.0.0 Safari/537.36" etag="-bl3GMZCgHSdJJpZ_ZYs" version="22.1.19" type="device">
  <diagram name="Page-1" id="ViN1MgAIc3pNfJpvPXCC">
    <mxGraphModel dx="1807" dy="645" grid="1" gridSize="10" guides="1" tooltips="1" connect="1" arrows="1" fold="1" page="1" pageScale="1" pageWidth="827" pageHeight="1169" math="0" shadow="0">
      <root>
        <mxCell id="0" />
        <mxCell id="1" parent="0" />
        <mxCell id="5FtLR4jmGKG9ek1i7CUX-1" value="Fold &lt;i&gt;f&lt;/i&gt;" style="rounded=0;whiteSpace=wrap;html=1;fillColor=#f8cecc;strokeColor=#b85450;" vertex="1" parent="1">
          <mxGeometry x="90" y="170" width="70" height="30" as="geometry" />
        </mxCell>
        <mxCell id="5FtLR4jmGKG9ek1i7CUX-2" value="" style="rounded=0;whiteSpace=wrap;html=1;fillColor=#d5e8d4;strokeColor=#82b366;" vertex="1" parent="1">
          <mxGeometry x="160" y="170" width="10" height="30" as="geometry" />
        </mxCell>
        <mxCell id="5FtLR4jmGKG9ek1i7CUX-35" style="edgeStyle=orthogonalEdgeStyle;rounded=0;orthogonalLoop=1;jettySize=auto;html=1;exitX=0;exitY=1;exitDx=0;exitDy=0;entryX=0;entryY=0;entryDx=0;entryDy=0;" edge="1" parent="1" source="5FtLR4jmGKG9ek1i7CUX-11" target="5FtLR4jmGKG9ek1i7CUX-16">
          <mxGeometry relative="1" as="geometry" />
        </mxCell>
        <mxCell id="5FtLR4jmGKG9ek1i7CUX-11" value="Time Series &lt;i&gt;S&lt;/i&gt;" style="rounded=0;whiteSpace=wrap;html=1;fillColor=#fff2cc;strokeColor=#d6b656;" vertex="1" parent="1">
          <mxGeometry x="60" y="110" width="540" height="30" as="geometry" />
        </mxCell>
        <mxCell id="5FtLR4jmGKG9ek1i7CUX-12" value="Fold ..." style="rounded=0;whiteSpace=wrap;html=1;fillColor=#f8cecc;strokeColor=#b85450;" vertex="1" parent="1">
          <mxGeometry x="80" y="200" width="70" height="30" as="geometry" />
        </mxCell>
        <mxCell id="5FtLR4jmGKG9ek1i7CUX-13" value="" style="rounded=0;whiteSpace=wrap;html=1;fillColor=#d5e8d4;strokeColor=#82b366;" vertex="1" parent="1">
          <mxGeometry x="150" y="200" width="10" height="30" as="geometry" />
        </mxCell>
        <mxCell id="5FtLR4jmGKG9ek1i7CUX-14" value="Fold 2" style="rounded=0;whiteSpace=wrap;html=1;fillColor=#f8cecc;strokeColor=#b85450;" vertex="1" parent="1">
          <mxGeometry x="70" y="230" width="70" height="30" as="geometry" />
        </mxCell>
        <mxCell id="5FtLR4jmGKG9ek1i7CUX-15" value="" style="rounded=0;whiteSpace=wrap;html=1;fillColor=#d5e8d4;strokeColor=#82b366;" vertex="1" parent="1">
          <mxGeometry x="140" y="230" width="10" height="30" as="geometry" />
        </mxCell>
        <mxCell id="5FtLR4jmGKG9ek1i7CUX-16" value="Fold &lt;i&gt;1&lt;/i&gt;" style="rounded=0;whiteSpace=wrap;html=1;fillColor=#f8cecc;strokeColor=#b85450;" vertex="1" parent="1">
          <mxGeometry x="60" y="260" width="70" height="30" as="geometry" />
        </mxCell>
        <mxCell id="5FtLR4jmGKG9ek1i7CUX-17" value="" style="rounded=0;whiteSpace=wrap;html=1;fillColor=#d5e8d4;strokeColor=#82b366;" vertex="1" parent="1">
          <mxGeometry x="130" y="260" width="10" height="30" as="geometry" />
        </mxCell>
        <mxCell id="5FtLR4jmGKG9ek1i7CUX-37" style="edgeStyle=orthogonalEdgeStyle;rounded=0;orthogonalLoop=1;jettySize=auto;html=1;exitX=0;exitY=1;exitDx=0;exitDy=0;" edge="1" parent="1">
          <mxGeometry relative="1" as="geometry">
            <mxPoint x="70" y="140" as="sourcePoint" />
            <mxPoint x="70" y="230" as="targetPoint" />
          </mxGeometry>
        </mxCell>
        <mxCell id="5FtLR4jmGKG9ek1i7CUX-38" style="edgeStyle=orthogonalEdgeStyle;rounded=0;orthogonalLoop=1;jettySize=auto;html=1;exitX=0;exitY=1;exitDx=0;exitDy=0;" edge="1" parent="1">
          <mxGeometry relative="1" as="geometry">
            <mxPoint x="80" y="140" as="sourcePoint" />
            <mxPoint x="80" y="200" as="targetPoint" />
          </mxGeometry>
        </mxCell>
        <mxCell id="5FtLR4jmGKG9ek1i7CUX-39" style="edgeStyle=orthogonalEdgeStyle;rounded=0;orthogonalLoop=1;jettySize=auto;html=1;exitX=0;exitY=1;exitDx=0;exitDy=0;" edge="1" parent="1">
          <mxGeometry relative="1" as="geometry">
            <mxPoint x="90" y="140" as="sourcePoint" />
            <mxPoint x="90" y="170" as="targetPoint" />
          </mxGeometry>
        </mxCell>
        <mxCell id="5FtLR4jmGKG9ek1i7CUX-40" value="Fold &lt;i&gt;f x 2&lt;/i&gt;" style="rounded=0;whiteSpace=wrap;html=1;fillColor=#f8cecc;strokeColor=#b85450;" vertex="1" parent="1">
          <mxGeometry x="230" y="170" width="70" height="30" as="geometry" />
        </mxCell>
        <mxCell id="5FtLR4jmGKG9ek1i7CUX-41" value="" style="rounded=0;whiteSpace=wrap;html=1;fillColor=#d5e8d4;strokeColor=#82b366;" vertex="1" parent="1">
          <mxGeometry x="300" y="170" width="10" height="30" as="geometry" />
        </mxCell>
        <mxCell id="5FtLR4jmGKG9ek1i7CUX-42" style="edgeStyle=orthogonalEdgeStyle;rounded=0;orthogonalLoop=1;jettySize=auto;html=1;exitX=0;exitY=1;exitDx=0;exitDy=0;entryX=0;entryY=0;entryDx=0;entryDy=0;" edge="1" parent="1" target="5FtLR4jmGKG9ek1i7CUX-47">
          <mxGeometry relative="1" as="geometry">
            <mxPoint x="200" y="140" as="sourcePoint" />
          </mxGeometry>
        </mxCell>
        <mxCell id="5FtLR4jmGKG9ek1i7CUX-43" value="Fold ..." style="rounded=0;whiteSpace=wrap;html=1;fillColor=#f8cecc;strokeColor=#b85450;" vertex="1" parent="1">
          <mxGeometry x="220" y="200" width="70" height="30" as="geometry" />
        </mxCell>
        <mxCell id="5FtLR4jmGKG9ek1i7CUX-44" value="" style="rounded=0;whiteSpace=wrap;html=1;fillColor=#d5e8d4;strokeColor=#82b366;" vertex="1" parent="1">
          <mxGeometry x="290" y="200" width="10" height="30" as="geometry" />
        </mxCell>
        <mxCell id="5FtLR4jmGKG9ek1i7CUX-45" value="Fold 2+&lt;i&gt;f&lt;/i&gt;" style="rounded=0;whiteSpace=wrap;html=1;fillColor=#f8cecc;strokeColor=#b85450;" vertex="1" parent="1">
          <mxGeometry x="210" y="230" width="70" height="30" as="geometry" />
        </mxCell>
        <mxCell id="5FtLR4jmGKG9ek1i7CUX-46" value="" style="rounded=0;whiteSpace=wrap;html=1;fillColor=#d5e8d4;strokeColor=#82b366;" vertex="1" parent="1">
          <mxGeometry x="280" y="230" width="10" height="30" as="geometry" />
        </mxCell>
        <mxCell id="5FtLR4jmGKG9ek1i7CUX-47" value="Fold &lt;i&gt;1+f&lt;/i&gt;" style="rounded=0;whiteSpace=wrap;html=1;fillColor=#f8cecc;strokeColor=#b85450;" vertex="1" parent="1">
          <mxGeometry x="200" y="260" width="70" height="30" as="geometry" />
        </mxCell>
        <mxCell id="5FtLR4jmGKG9ek1i7CUX-48" value="" style="rounded=0;whiteSpace=wrap;html=1;fillColor=#d5e8d4;strokeColor=#82b366;" vertex="1" parent="1">
          <mxGeometry x="270" y="260" width="10" height="30" as="geometry" />
        </mxCell>
        <mxCell id="5FtLR4jmGKG9ek1i7CUX-49" style="edgeStyle=orthogonalEdgeStyle;rounded=0;orthogonalLoop=1;jettySize=auto;html=1;exitX=0;exitY=1;exitDx=0;exitDy=0;" edge="1" parent="1">
          <mxGeometry relative="1" as="geometry">
            <mxPoint x="210" y="140" as="sourcePoint" />
            <mxPoint x="210" y="230" as="targetPoint" />
          </mxGeometry>
        </mxCell>
        <mxCell id="5FtLR4jmGKG9ek1i7CUX-50" style="edgeStyle=orthogonalEdgeStyle;rounded=0;orthogonalLoop=1;jettySize=auto;html=1;exitX=0;exitY=1;exitDx=0;exitDy=0;" edge="1" parent="1">
          <mxGeometry relative="1" as="geometry">
            <mxPoint x="220" y="140" as="sourcePoint" />
            <mxPoint x="220" y="200" as="targetPoint" />
          </mxGeometry>
        </mxCell>
        <mxCell id="5FtLR4jmGKG9ek1i7CUX-51" style="edgeStyle=orthogonalEdgeStyle;rounded=0;orthogonalLoop=1;jettySize=auto;html=1;exitX=0;exitY=1;exitDx=0;exitDy=0;" edge="1" parent="1">
          <mxGeometry relative="1" as="geometry">
            <mxPoint x="230" y="140" as="sourcePoint" />
            <mxPoint x="230" y="170" as="targetPoint" />
          </mxGeometry>
        </mxCell>
        <mxCell id="5FtLR4jmGKG9ek1i7CUX-52" value="Fold &lt;i&gt;f x r&lt;/i&gt;" style="rounded=0;whiteSpace=wrap;html=1;fillColor=#f8cecc;strokeColor=#b85450;" vertex="1" parent="1">
          <mxGeometry x="520" y="170" width="70" height="30" as="geometry" />
        </mxCell>
        <mxCell id="5FtLR4jmGKG9ek1i7CUX-53" value="" style="rounded=0;whiteSpace=wrap;html=1;fillColor=#d5e8d4;strokeColor=#82b366;" vertex="1" parent="1">
          <mxGeometry x="590" y="170" width="10" height="30" as="geometry" />
        </mxCell>
        <mxCell id="5FtLR4jmGKG9ek1i7CUX-54" style="edgeStyle=orthogonalEdgeStyle;rounded=0;orthogonalLoop=1;jettySize=auto;html=1;exitX=0;exitY=1;exitDx=0;exitDy=0;entryX=0;entryY=0;entryDx=0;entryDy=0;" edge="1" parent="1" target="5FtLR4jmGKG9ek1i7CUX-59">
          <mxGeometry relative="1" as="geometry">
            <mxPoint x="490" y="140" as="sourcePoint" />
          </mxGeometry>
        </mxCell>
        <mxCell id="5FtLR4jmGKG9ek1i7CUX-55" value="Fold ..." style="rounded=0;whiteSpace=wrap;html=1;fillColor=#f8cecc;strokeColor=#b85450;" vertex="1" parent="1">
          <mxGeometry x="510" y="200" width="70" height="30" as="geometry" />
        </mxCell>
        <mxCell id="5FtLR4jmGKG9ek1i7CUX-56" value="" style="rounded=0;whiteSpace=wrap;html=1;fillColor=#d5e8d4;strokeColor=#82b366;" vertex="1" parent="1">
          <mxGeometry x="580" y="200" width="10" height="30" as="geometry" />
        </mxCell>
        <mxCell id="5FtLR4jmGKG9ek1i7CUX-57" value="Fold ..." style="rounded=0;whiteSpace=wrap;html=1;fillColor=#f8cecc;strokeColor=#b85450;" vertex="1" parent="1">
          <mxGeometry x="500" y="230" width="70" height="30" as="geometry" />
        </mxCell>
        <mxCell id="5FtLR4jmGKG9ek1i7CUX-58" value="" style="rounded=0;whiteSpace=wrap;html=1;fillColor=#d5e8d4;strokeColor=#82b366;" vertex="1" parent="1">
          <mxGeometry x="570" y="230" width="10" height="30" as="geometry" />
        </mxCell>
        <mxCell id="5FtLR4jmGKG9ek1i7CUX-59" value="Fold &lt;i&gt;...&lt;/i&gt;" style="rounded=0;whiteSpace=wrap;html=1;fillColor=#f8cecc;strokeColor=#b85450;" vertex="1" parent="1">
          <mxGeometry x="490" y="260" width="70" height="30" as="geometry" />
        </mxCell>
        <mxCell id="5FtLR4jmGKG9ek1i7CUX-60" value="" style="rounded=0;whiteSpace=wrap;html=1;fillColor=#d5e8d4;strokeColor=#82b366;" vertex="1" parent="1">
          <mxGeometry x="560" y="260" width="10" height="30" as="geometry" />
        </mxCell>
        <mxCell id="5FtLR4jmGKG9ek1i7CUX-61" style="edgeStyle=orthogonalEdgeStyle;rounded=0;orthogonalLoop=1;jettySize=auto;html=1;exitX=0;exitY=1;exitDx=0;exitDy=0;" edge="1" parent="1">
          <mxGeometry relative="1" as="geometry">
            <mxPoint x="500" y="140" as="sourcePoint" />
            <mxPoint x="500" y="230" as="targetPoint" />
          </mxGeometry>
        </mxCell>
        <mxCell id="5FtLR4jmGKG9ek1i7CUX-62" style="edgeStyle=orthogonalEdgeStyle;rounded=0;orthogonalLoop=1;jettySize=auto;html=1;exitX=0;exitY=1;exitDx=0;exitDy=0;" edge="1" parent="1">
          <mxGeometry relative="1" as="geometry">
            <mxPoint x="510" y="140" as="sourcePoint" />
            <mxPoint x="510" y="200" as="targetPoint" />
          </mxGeometry>
        </mxCell>
        <mxCell id="5FtLR4jmGKG9ek1i7CUX-63" style="edgeStyle=orthogonalEdgeStyle;rounded=0;orthogonalLoop=1;jettySize=auto;html=1;exitX=0;exitY=1;exitDx=0;exitDy=0;" edge="1" parent="1">
          <mxGeometry relative="1" as="geometry">
            <mxPoint x="520" y="140" as="sourcePoint" />
            <mxPoint x="520" y="170" as="targetPoint" />
          </mxGeometry>
        </mxCell>
        <mxCell id="5FtLR4jmGKG9ek1i7CUX-65" value="Group 1" style="rounded=0;whiteSpace=wrap;html=1;fillColor=#dae8fc;strokeColor=#6c8ebf;" vertex="1" parent="1">
          <mxGeometry x="60" y="320" width="110" height="60" as="geometry" />
        </mxCell>
        <mxCell id="5FtLR4jmGKG9ek1i7CUX-78" value="Group 2" style="rounded=0;whiteSpace=wrap;html=1;fillColor=#dae8fc;strokeColor=#6c8ebf;" vertex="1" parent="1">
          <mxGeometry x="200" y="320" width="110" height="60" as="geometry" />
        </mxCell>
        <mxCell id="5FtLR4jmGKG9ek1i7CUX-79" value="Group ..." style="rounded=0;whiteSpace=wrap;html=1;fillColor=#dae8fc;strokeColor=#6c8ebf;" vertex="1" parent="1">
          <mxGeometry x="340" y="320" width="110" height="60" as="geometry" />
        </mxCell>
        <mxCell id="5FtLR4jmGKG9ek1i7CUX-80" value="Group &lt;i&gt;r&lt;/i&gt;" style="rounded=0;whiteSpace=wrap;html=1;fillColor=#dae8fc;strokeColor=#6c8ebf;" vertex="1" parent="1">
          <mxGeometry x="490" y="320" width="110" height="60" as="geometry" />
        </mxCell>
        <mxCell id="5FtLR4jmGKG9ek1i7CUX-85" value="Legend" style="rounded=1;whiteSpace=wrap;html=1;" vertex="1" parent="1">
          <mxGeometry x="670" y="110" width="120" height="50" as="geometry" />
        </mxCell>
        <mxCell id="5FtLR4jmGKG9ek1i7CUX-87" value="" style="rounded=1;whiteSpace=wrap;html=1;" vertex="1" parent="1">
          <mxGeometry x="670" y="320" width="120" height="60" as="geometry" />
        </mxCell>
        <mxCell id="5FtLR4jmGKG9ek1i7CUX-88" value="" style="rounded=0;whiteSpace=wrap;html=1;" vertex="1" parent="1">
          <mxGeometry x="670" y="155" width="120" height="175" as="geometry" />
        </mxCell>
        <mxCell id="5FtLR4jmGKG9ek1i7CUX-89" value="Whole time-series" style="rounded=0;whiteSpace=wrap;html=1;fillColor=#fff2cc;strokeColor=#d6b656;" vertex="1" parent="1">
          <mxGeometry x="675" y="167.5" width="110" height="30" as="geometry" />
        </mxCell>
        <mxCell id="5FtLR4jmGKG9ek1i7CUX-90" value="Train set of a fold" style="rounded=0;whiteSpace=wrap;html=1;fillColor=#f8cecc;strokeColor=#b85450;" vertex="1" parent="1">
          <mxGeometry x="675" y="207.5" width="110" height="30" as="geometry" />
        </mxCell>
        <mxCell id="5FtLR4jmGKG9ek1i7CUX-91" value="Test set of a fold" style="rounded=0;whiteSpace=wrap;html=1;fillColor=#d5e8d4;strokeColor=#82b366;" vertex="1" parent="1">
          <mxGeometry x="675" y="247.5" width="110" height="30" as="geometry" />
        </mxCell>
        <mxCell id="5FtLR4jmGKG9ek1i7CUX-92" value="Groups" style="rounded=0;whiteSpace=wrap;html=1;fillColor=#dae8fc;strokeColor=#6c8ebf;" vertex="1" parent="1">
          <mxGeometry x="675" y="287.5" width="110" height="30" as="geometry" />
        </mxCell>
        <mxCell id="5FtLR4jmGKG9ek1i7CUX-117" value="" style="rounded=0;whiteSpace=wrap;html=1;fillColor=#f8cecc;strokeColor=#b85450;" vertex="1" parent="1">
          <mxGeometry x="100" y="740" width="460" height="80" as="geometry" />
        </mxCell>
        <mxCell id="5FtLR4jmGKG9ek1i7CUX-118" value="" style="rounded=0;whiteSpace=wrap;html=1;fillColor=#d5e8d4;strokeColor=#82b366;" vertex="1" parent="1">
          <mxGeometry x="560" y="740" width="90" height="80" as="geometry" />
        </mxCell>
        <mxCell id="5FtLR4jmGKG9ek1i7CUX-122" value="" style="shape=curlyBracket;whiteSpace=wrap;html=1;rounded=1;flipH=1;labelPosition=right;verticalLabelPosition=middle;align=left;verticalAlign=middle;rotation=-90;" vertex="1" parent="1">
          <mxGeometry x="450" y="630" width="60" height="160" as="geometry" />
        </mxCell>
        <mxCell id="5FtLR4jmGKG9ek1i7CUX-125" value="" style="shape=curlyBracket;whiteSpace=wrap;html=1;rounded=1;flipH=1;labelPosition=right;verticalLabelPosition=middle;align=left;verticalAlign=middle;rotation=-90;size=0.1536969696969697;" vertex="1" parent="1">
          <mxGeometry x="237.82" y="417.82" width="184.37" height="460" as="geometry" />
        </mxCell>
        <mxCell id="5FtLR4jmGKG9ek1i7CUX-126" value="&lt;span style=&quot;color: rgb(0, 0, 0); font-family: Helvetica; font-size: 12px; font-style: normal; font-variant-ligatures: normal; font-variant-caps: normal; font-weight: 400; letter-spacing: normal; orphans: 2; text-align: center; text-indent: 0px; text-transform: none; widows: 2; word-spacing: 0px; -webkit-text-stroke-width: 0px; background-color: rgb(251, 251, 251); text-decoration-thickness: initial; text-decoration-style: initial; text-decoration-color: initial; float: none; display: inline !important;&quot;&gt;Context window of length cl&lt;/span&gt;&lt;span style=&quot;color: rgb(0, 0, 0); font-family: Helvetica; font-size: 12px; font-variant-ligatures: normal; font-variant-caps: normal; font-weight: 400; letter-spacing: normal; orphans: 2; text-align: center; text-indent: 0px; text-transform: none; widows: 2; word-spacing: 0px; -webkit-text-stroke-width: 0px; background-color: rgb(251, 251, 251); text-decoration-thickness: initial; text-decoration-style: initial; text-decoration-color: initial; float: none; display: inline !important;&quot;&gt;&amp;nbsp;&lt;br&gt;&lt;br&gt;&lt;i&gt;(used as context window for zero-shot and fine-tuned TSFMs and as a train-set for benchmark models)&lt;/i&gt;&lt;/span&gt;" style="rounded=1;whiteSpace=wrap;html=1;" vertex="1" parent="1">
          <mxGeometry x="300" y="600" width="190" height="87.5" as="geometry" />
        </mxCell>
        <mxCell id="5FtLR4jmGKG9ek1i7CUX-128" value="Fine-tuning set of length n &lt;i&gt;(only used by fine-tuned TSFMs)&lt;/i&gt;" style="rounded=1;whiteSpace=wrap;html=1;" vertex="1" parent="1">
          <mxGeometry x="255" y="500" width="150.01" height="60" as="geometry" />
        </mxCell>
        <mxCell id="5FtLR4jmGKG9ek1i7CUX-129" value="" style="shape=curlyBracket;whiteSpace=wrap;html=1;rounded=1;flipH=1;labelPosition=right;verticalLabelPosition=middle;align=left;verticalAlign=middle;rotation=90;size=0.43649783659964453;" vertex="1" parent="1">
          <mxGeometry x="335.72" y="582.11" width="78.58" height="550" as="geometry" />
        </mxCell>
        <mxCell id="5FtLR4jmGKG9ek1i7CUX-130" value="The whole fold" style="rounded=1;whiteSpace=wrap;html=1;" vertex="1" parent="1">
          <mxGeometry x="315.01" y="890" width="120" height="60" as="geometry" />
        </mxCell>
        <mxCell id="5FtLR4jmGKG9ek1i7CUX-132" value="" style="endArrow=none;html=1;rounded=0;dashed=1;" edge="1" parent="1">
          <mxGeometry width="50" height="50" relative="1" as="geometry">
            <mxPoint x="400" y="820" as="sourcePoint" />
            <mxPoint x="400" y="740" as="targetPoint" />
          </mxGeometry>
        </mxCell>
        <mxCell id="5FtLR4jmGKG9ek1i7CUX-133" value="" style="endArrow=none;html=1;rounded=0;dashed=1;" edge="1" parent="1">
          <mxGeometry width="50" height="50" relative="1" as="geometry">
            <mxPoint x="560" y="820" as="sourcePoint" />
            <mxPoint x="560" y="740" as="targetPoint" />
          </mxGeometry>
        </mxCell>
        <mxCell id="5FtLR4jmGKG9ek1i7CUX-134" value="Legend" style="rounded=1;whiteSpace=wrap;html=1;" vertex="1" parent="1">
          <mxGeometry x="675" y="590" width="120" height="50" as="geometry" />
        </mxCell>
        <mxCell id="5FtLR4jmGKG9ek1i7CUX-135" value="" style="rounded=1;whiteSpace=wrap;html=1;" vertex="1" parent="1">
          <mxGeometry x="675" y="800" width="120" height="60" as="geometry" />
        </mxCell>
        <mxCell id="5FtLR4jmGKG9ek1i7CUX-136" value="" style="rounded=0;whiteSpace=wrap;html=1;" vertex="1" parent="1">
          <mxGeometry x="675" y="635" width="120" height="175" as="geometry" />
        </mxCell>
        <mxCell id="5FtLR4jmGKG9ek1i7CUX-138" value="Train set of a fold" style="rounded=0;whiteSpace=wrap;html=1;fillColor=#f8cecc;strokeColor=#b85450;" vertex="1" parent="1">
          <mxGeometry x="680" y="687.5" width="110" height="30" as="geometry" />
        </mxCell>
        <mxCell id="5FtLR4jmGKG9ek1i7CUX-139" value="Test set of a fold" style="rounded=0;whiteSpace=wrap;html=1;fillColor=#d5e8d4;strokeColor=#82b366;" vertex="1" parent="1">
          <mxGeometry x="680" y="727.5" width="110" height="30" as="geometry" />
        </mxCell>
      </root>
    </mxGraphModel>
  </diagram>
</mxfile>
